<svg width="18" height="18" viewBox="0 0 18 18" fill="none" xmlns="http://www.w3.org/2000/svg">
<path fill-rule="evenodd" clip-rule="evenodd" d="M9 0C4.02944 0 0 4.02944 0 9C0 13.9706 4.02944 18 9 18C13.9706 18 18 13.9706 18 9C18 4.02944 13.9706 0 9 0ZM7.02123 4.229C7.53323 4.2057 7.69684 4.2 9.00045 4.2H8.99895C10.303 4.2 10.466 4.2057 10.978 4.229C11.489 4.2524 11.838 4.3333 12.144 4.452C12.46 4.57451 12.727 4.73851 12.994 5.00551C13.261 5.27231 13.425 5.54012 13.548 5.85582C13.666 6.16102 13.747 6.50983 13.771 7.02083C13.794 7.53284 13.8 7.69644 13.8 9.00005C13.8 10.3037 13.794 10.4669 13.771 10.9789C13.747 11.4897 13.666 11.8386 13.548 12.1439C13.425 12.4595 13.261 12.7273 12.994 12.9941C12.7273 13.2611 12.4599 13.4255 12.1443 13.5481C11.8389 13.6668 11.4897 13.7477 10.9787 13.7711C10.4667 13.7944 10.3036 13.8001 8.99985 13.8001C7.69634 13.8001 7.53284 13.7944 7.02083 13.7711C6.50992 13.7477 6.16102 13.6668 5.85562 13.5481C5.54011 13.4255 5.27231 13.2611 5.00561 12.9941C4.73871 12.7273 4.57471 12.4595 4.452 12.1438C4.3334 11.8386 4.2525 11.4898 4.229 10.9788C4.2058 10.4668 4.2 10.3037 4.2 9.00005C4.2 7.69644 4.206 7.53274 4.2289 7.02073C4.2519 6.50993 4.3329 6.16102 4.4519 5.85572C4.57491 5.54012 4.73891 5.27231 5.00591 5.00551C5.27271 4.73861 5.54051 4.57461 5.85622 4.452C6.16142 4.3333 6.51022 4.2524 7.02123 4.229Z" fill="#DBDADA"/>
<path fill-rule="evenodd" clip-rule="evenodd" d="M8.56987 5.06504C8.65348 5.06491 8.74342 5.06495 8.84049 5.065L9.00047 5.06504C10.2821 5.06504 10.434 5.06964 10.9401 5.09264C11.4081 5.11404 11.6621 5.19224 11.8313 5.25794C12.0553 5.34495 12.215 5.44895 12.3829 5.61695C12.5509 5.78495 12.6549 5.94495 12.7421 6.16895C12.8078 6.33796 12.8861 6.59196 12.9074 7.05996C12.9304 7.56597 12.9354 7.71797 12.9354 8.99898C12.9354 10.28 12.9304 10.432 12.9074 10.938C12.886 11.406 12.8078 11.66 12.7421 11.829C12.6551 12.053 12.5509 12.2125 12.3829 12.3804C12.2149 12.5484 12.0554 12.6524 11.8313 12.7394C11.6623 12.8054 11.4081 12.8834 10.9401 12.9048C10.4341 12.9278 10.2821 12.9328 9.00047 12.9328C7.71876 12.9328 7.56686 12.9278 7.06085 12.9048C6.59285 12.8832 6.33884 12.805 6.16954 12.7393C5.94554 12.6523 5.78554 12.5483 5.61754 12.3803C5.44953 12.2123 5.34553 12.0527 5.25833 11.8286C5.19263 11.6596 5.11433 11.4056 5.09303 10.9376C5.07003 10.4316 5.06543 10.2796 5.06543 8.99778C5.06543 7.71597 5.07003 7.56477 5.09303 7.05876C5.11443 6.59076 5.19263 6.33676 5.25833 6.16755C5.34533 5.94355 5.44953 5.78355 5.61754 5.61555C5.78554 5.44755 5.94554 5.34355 6.16954 5.25634C6.33874 5.19034 6.59285 5.11234 7.06085 5.09084C7.50366 5.07084 7.67526 5.06484 8.56987 5.06384V5.06504ZM11.5626 5.86209C11.2446 5.86209 10.9866 6.11979 10.9866 6.4379C10.9866 6.7559 11.2446 7.0139 11.5626 7.0139C11.8806 7.0139 12.1386 6.7559 12.1386 6.4379C12.1386 6.11989 11.8806 5.86189 11.5626 5.86189V5.86209ZM6.53546 9.00003C6.53546 7.63875 7.63912 6.53506 9.00039 6.53501C10.3617 6.53501 11.4651 7.63872 11.4651 9.00003C11.4651 10.3613 10.3618 11.4646 9.00049 11.4646C7.63917 11.4646 6.53546 10.3613 6.53546 9.00003Z" fill="#DBDADA"/>
<path d="M9.00041 7.40002C9.88402 7.40002 10.6004 8.11633 10.6004 9.00004C10.6004 9.88365 9.88402 10.6001 9.00041 10.6001C8.1167 10.6001 7.40039 9.88365 7.40039 9.00004C7.40039 8.11633 8.1167 7.40002 9.00041 7.40002Z" fill="#DBDADA"/>
</svg>
