<svg width="34" height="22" viewBox="0 0 34 22" fill="none" xmlns="http://www.w3.org/2000/svg">
<g clip-path="url(#clip0_2430_1109)">
<path d="M0.384766 2.74463C0.384766 1.22881 1.6277 0 3.16094 0H30.9227C32.4559 0 33.6989 1.22881 33.6989 2.74463V19.2124C33.6989 20.7282 32.4559 21.957 30.9227 21.957H3.16094C1.6277 21.957 0.384766 20.7282 0.384766 19.2124V2.74463Z" fill="#CCEFFF"/>
<path d="M20.6862 17.4544H13.3994V4.50757H20.6862V17.4544Z" fill="#6C6BBD"/>
<path d="M13.8658 10.9785C13.8658 8.3522 15.1096 6.01275 17.0465 4.50512C15.6301 3.40266 13.8425 2.74464 11.8997 2.74464C7.30048 2.74464 3.57227 6.43102 3.57227 10.9785C3.57227 15.526 7.30048 19.2124 11.8997 19.2124C13.8425 19.2124 15.6301 18.5544 17.0465 17.4519C15.1096 15.9443 13.8658 13.6048 13.8658 10.9785Z" fill="#EB001B"/>
<path d="M30.5128 10.9785C30.5128 15.526 26.7846 19.2124 22.1854 19.2124C20.2426 19.2124 18.455 18.5544 17.0381 17.4519C18.9755 15.9443 20.2193 13.6048 20.2193 10.9785C20.2193 8.3522 18.9755 6.01275 17.0381 4.50512C18.455 3.40266 20.2426 2.74464 22.1854 2.74464C26.7846 2.74464 30.5128 6.43102 30.5128 10.9785Z" fill="#0099DF"/>
</g>
<defs>
<clipPath id="clip0_2430_1109">
<rect width="33.3141" height="21.957" fill="white" transform="translate(0.384766)"/>
</clipPath>
</defs>
</svg>
