<svg width="12" height="12" viewBox="0 0 12 12" fill="none" xmlns="http://www.w3.org/2000/svg">
<path fill-rule="evenodd" clip-rule="evenodd" d="M10.6667 5.33329H6.66675V1.33329C6.66675 0.964626 6.36808 0.666626 6.00008 0.666626C5.63208 0.666626 5.33341 0.964626 5.33341 1.33329V5.33329H1.33341C0.965415 5.33329 0.666748 5.63129 0.666748 5.99996C0.666748 6.36863 0.965415 6.66663 1.33341 6.66663H5.33341V10.6666C5.33341 11.0353 5.63208 11.3333 6.00008 11.3333C6.36808 11.3333 6.66675 11.0353 6.66675 10.6666V6.66663H10.6667C11.0347 6.66663 11.3334 6.36863 11.3334 5.99996C11.3334 5.63129 11.0347 5.33329 10.6667 5.33329Z" fill="#DBDADA"/>
</svg>
